<svg xmlns="http://www.w3.org/2000/svg" xmlns:xlink="http://www.w3.org/1999/xlink" version="1.1" x="0px" y="0px" viewBox="0 0 30 37.5" xml:space="preserve"><g transform="translate(-150 -200)"><path xmlns="http://www.w3.org/2000/svg" xmlns:xlink="http://www.w3.org/1999/xlink" d="M178.281,206.292c-0.979-1.521-2.727-2.292-5.197-2.292c-4.554,0-6.923,4.803-8.084,11.023   c-1.161-6.221-3.53-11.023-8.084-11.023c-2.471,0-4.219,0.771-5.197,2.292c-1.966,3.056,0.211,7.917,0.304,8.122l1.821-0.828   c-0.511-1.127-1.585-4.441-0.441-6.215c0.587-0.91,1.77-1.371,3.514-1.371c4.502,0,7.084,8.019,7.084,22h2   c0-13.981,2.582-22,7.084-22c1.744,0,2.927,0.461,3.514,1.371c1.143,1.773,0.069,5.088-0.441,6.215l1.821,0.828   C178.07,214.209,180.247,209.348,178.281,206.292z"/></g><text x="0" y="45" fill="#000000" font-size="5px" font-weight="bold" font-family="'Helvetica Neue', Helvetica, Arial-Unicode, Arial, Sans-serif">Created by Hea Poh Lin</text><text x="0" y="50" fill="#000000" font-size="5px" font-weight="bold" font-family="'Helvetica Neue', Helvetica, Arial-Unicode, Arial, Sans-serif">from the Noun Project</text></svg>